<svg width="26" height="24" viewBox="0 0 26 24" fill="none" xmlns="http://www.w3.org/2000/svg">
<path fill-rule="evenodd" clip-rule="evenodd" d="M12.5642 1.80352C6.68518 1.82243 1.92656 6.39869 1.93878 11.9762C1.95099 17.5697 6.74035 22.1214 12.6188 22.1126C18.4859 22.1039 23.2645 17.5417 23.2611 11.9525C23.2499 6.30513 18.4166 1.78471 12.5642 1.80352ZM25.1967 11.9595C25.2211 18.4994 19.6575 23.9906 12.6117 24C5.66344 24.0093 -0.000593186 18.6416 4.65956e-08 12C0.000543843 5.36117 5.66003 0.00646078 12.5989 1.24129e-09C19.5266 -9.43166e-05 25.1721 5.3748 25.1967 11.9595Z" fill="#191919"/>
<path fill-rule="evenodd" clip-rule="evenodd" d="M10.4065 8.84154C10.412 9.16236 10.5043 9.4594 10.662 9.74277C11.1912 10.6939 11.7182 11.646 12.2463 12.5977C12.8743 13.7293 13.503 14.8606 14.1304 15.9926C14.4118 16.5004 14.8453 16.84 15.4436 16.9948C16.6896 17.3172 17.9438 16.5222 18.0658 15.3382C18.1056 14.9521 18.0161 14.5936 17.8253 14.2512C17.3576 13.4117 16.8921 12.5712 16.426 11.7309C15.741 10.4963 15.0545 9.26248 14.3723 8.02657C14.1248 7.57825 13.7594 7.25031 13.2482 7.06643C12.0179 6.62398 10.6604 7.33146 10.445 8.52669C10.4263 8.63076 10.4191 8.73656 10.4065 8.84154Z" fill="#191919"/>
<path fill-rule="evenodd" clip-rule="evenodd" d="M7.12146 14.401C7.12118 15.5777 8.11033 16.5396 9.3172 16.5362C10.5187 16.5329 11.5029 15.5731 11.5035 14.4044C11.5041 13.2292 10.5143 12.2673 9.30665 12.2695C8.10503 12.2717 7.12174 13.2308 7.12146 14.401Z" fill="#191919"/>
</svg>
